PathFileType	4	(X/Y/Z)	s05c0101.trc
DataRate	CameraRate	NumFrames	NumMarkers	Units	OrigDataRate	OrigDataStartFrame	OrigNumFrames
200	200	4	50	mm	200	250	2000
Frame#	Time	racr			lacr			c7			jug			rlel			rdr			llel			ldr			s2			lic			ric			lasi			rasi			rpsi			lpsi			rgt			lgt			rth1			rth2			rth3			rth4			rlfc			rmfc			rsh1			rsh2			rsh3			rsh4			rlmal			rmmal			rcal			rtoe			rmt5			lth1			lth2			lth4			lth3			llfc			lmfc			lsh1			lsh2			lsh3			lsh4			llmal			lmmal			lcal			ltoe			lmt5			SBIKE			LBIKE			RBIKE			
		X1	Y1	Z1	X2	Y2	Z2	X3	Y3	Z3	X4	Y4	Z4	X5	Y5	Z5	X6	Y6	Z6	X7	Y7	Z7	X8	Y8	Z8	X9	Y9	Z9	X10	Y10	Z10	X11	Y11	Z11	X12	Y12	Z12	X13	Y13	Z13	X14	Y14	Z14	X15	Y15	Z15	X16	Y16	Z16	X17	Y17	Z17	X18	Y18	Z18	X19	Y19	Z19	X20	Y20	Z20	X21	Y21	Z21	X22	Y22	Z22	X23	Y23	Z23	X24	Y24	Z24	X25	Y25	Z25	X26	Y26	Z26	X27	Y27	Z27	X28	Y28	Z28	X29	Y29	Z29	X30	Y30	Z30	X31	Y31	Z31	X32	Y32	Z32	X33	Y33	Z33	X34	Y34	Z34	X35	Y35	Z35	X36	Y36	Z36	X37	Y37	Z37	X38	Y38	Z38	X39	Y39	Z39	X40	Y40	Z40	X41	Y41	Z41	X42	Y42	Z42	X43	Y43	Z43	X44	Y44	Z44	X45	Y45	Z45	X46	Y46	Z46	X47	Y47	Z47	X48	Y48	Z48	X49	Y49	Z49	X50	Y50	Z50	
250	1.2500	435.874075	1374.829767	-149.407516	436.814980	1390.148577	-432.653212	407.091919	1464.140972	-295.406886	396.247580	1305.426334	-293.957771	532.272959	1130.406351	-61.198636	696.490617	921.038870	-101.442671	518.282645	1130.112812	-522.502056	752.838820	1028.001476	-479.267475	-108.673717	1161.697837	-273.352178	43.699460	1174.003149	-417.276738	48.459020	1187.378407	-138.026808	87.714650	1116.285793	-387.259006	83.267529	1124.126581	-164.600835	-71.800267	1207.584014	-234.367234	-71.602968	1209.832284	-319.730093	-1.035660	1060.215591	-102.242391	-32.263745	1069.414916	-444.635918	98.465700	998.904108	-87.645811	185.690116	980.241055	-88.782682	249.951532	920.255917	-94.357293	201.262644	1011.920834	-101.013518	380.447222	840.142134	-125.370426	366.401578	834.238323	-235.273904	317.512402	747.127291	-101.993864	313.748873	658.195784	-109.466053	269.597575	584.874420	-112.810451	344.122946	651.576503	-132.572711	240.133213	451.616601	-122.046466	251.967257	475.599695	-201.986631	169.402517	418.964147	-166.092559	464.059908	400.261336	-159.375108	363.181446	375.195664	-94.812081	52.601497	956.466956	-467.208451	127.465802	913.422393	-470.819594	153.705354	935.869835	-455.193109	170.294885	834.134583	-477.039504	249.294826	704.831278	-447.068105	236.077738	697.142278	-337.495378	152.836337	622.152661	-467.341616	111.282302	546.301438	-453.088472	35.099916	500.530372	-450.217397	134.696052	527.939321	-428.505390	-44.549219	406.051134	-438.353852	-16.838505	419.415515	-359.011063	-117.448892	393.139324	-393.916453	144.528922	260.385491	-400.763318	34.863154	278.686173	-463.224079	-264.793464	895.797223	-286.315004	-53.350950	79.246354	-475.063447	-53.301735	79.222757	-77.473074	
251	1.2550	435.846231	1374.819442	-149.403344	436.794221	1390.124031	-432.633866	407.087059	1464.124206	-295.370013	396.249849	1305.424578	-293.961703	532.263905	1130.400654	-61.205421	696.486870	921.047482	-101.432068	518.269908	1130.085772	-522.527383	752.695633	1027.951317	-479.236198	-108.617407	1161.625791	-273.334029	43.695881	1173.980031	-417.270584	48.441911	1187.353790	-138.043603	87.693161	1116.277486	-387.279709	83.229303	1124.117654	-164.592079	-71.817721	1207.571250	-234.352800	-71.615393	1209.822058	-319.737864	-1.046332	1060.207011	-102.245310	-32.269198	1069.400742	-444.637069	98.457823	998.901339	-87.657741	185.690901	980.239627	-88.789733	249.934879	920.262836	-94.360536	201.252588	1011.920987	-101.026072	380.434406	840.163161	-125.377933	366.375758	834.238773	-235.287175	317.488522	747.141277	-101.993144	313.717405	658.190529	-109.486739	269.573603	584.880149	-112.811117	344.140521	651.587801	-132.592327	240.129390	451.633907	-122.058869	252.003446	475.580982	-201.984647	169.396197	418.961983	-166.082237	464.054520	400.236977	-159.375572	363.181838	375.190309	-94.810765	52.601258	956.445591	-467.208676	127.444704	913.412158	-470.833139	153.695259	935.866137	-455.186049	170.293259	834.124719	-477.037581	249.294796	704.831278	-447.068074	236.090967	697.148335	-337.499234	152.843043	622.165445	-467.319228	111.312805	546.327956	-453.086034	35.100048	500.538000	-450.217553	134.883093	528.038396	-428.766377	-44.544343	406.065191	-438.339745	-16.856615	419.432585	-359.000090	-117.451376	393.141571	-393.917436	144.538086	260.381416	-400.762145	34.857722	278.692626	-463.225419	-264.734651	895.813820	-286.451557	-53.355212	79.236982	-475.066848	-53.310245	79.240547	-77.453608	
252	1.2600	435.860186	1374.811789	-149.410339	436.793596	1390.111469	-432.632938	407.086388	1464.104625	-295.374157	396.245005	1305.412223	-293.953700	532.225907	1130.392186	-61.188966	696.490223	921.041366	-101.438114	518.244266	1130.079165	-522.568931	752.858798	1027.973809	-479.284097	-108.636793	1161.618570	-273.345661	43.684829	1173.983029	-417.275002	48.439749	1187.344392	-138.043429	87.695857	1116.262095	-387.280525	83.238840	1124.110700	-164.581675	-71.818322	1207.568078	-234.352658	-71.630357	1209.803967	-319.739901	-1.058399	1060.189338	-102.253128	-32.274611	1069.384817	-444.631636	98.459197	998.896048	-87.671343	185.679537	980.237452	-88.787938	249.933988	920.271822	-94.359428	201.245751	1011.926216	-101.007625	380.438916	840.158382	-125.394521	366.360790	834.236472	-235.290700	317.497842	747.142163	-101.995560	313.718513	658.202377	-109.501238	269.564732	584.883529	-112.809190	344.101906	651.582385	-132.591038	240.124037	451.640732	-122.026971	252.003928	475.580489	-201.984971	169.411086	418.957007	-166.107638	464.055956	400.239200	-159.378482	363.173639	375.194503	-94.814714	52.602819	956.428156	-467.181787	127.457058	913.393883	-470.825144	153.702690	935.866825	-455.184623	170.302684	834.128110	-477.024629	249.312908	704.825934	-447.065880	236.086574	697.160421	-337.494131	152.854922	622.166015	-467.317495	111.307787	546.311120	-453.070128	35.100755	500.539931	-450.211761	134.707240	527.955028	-428.493631	-44.543618	406.073578	-438.357810	-16.844971	419.446426	-358.996255	-117.443429	393.151422	-393.925504	144.524141	260.400027	-400.760007	34.852832	278.698948	-463.217489	-264.751349	895.796395	-286.358202	-53.373625	79.238981	-475.046009	-53.315383	79.230637	-77.455450	
253	1.2650	435.845464	1374.812328	-149.396046	436.778573	1390.080517	-432.628438	407.098290	1464.094939	-295.397852	396.265263	1305.401643	-293.980639	532.212930	1130.390535	-61.163987	696.484813	921.038436	-101.428077	518.215743	1130.063677	-522.608053	752.687800	1027.970016	-479.234401	-108.660686	1161.617612	-273.354223	43.652713	1173.991788	-417.277468	48.440259	1187.329277	-138.061832	87.677300	1116.258448	-387.289347	83.241108	1124.089477	-164.620584	-71.827346	1207.555274	-234.371655	-71.643312	1209.807584	-319.743585	-1.068026	1060.172352	-102.264720	-32.284113	1069.369294	-444.643341	98.458303	998.883457	-87.687901	185.658558	980.240297	-88.784823	249.890982	920.235685	-94.384937	201.240325	1011.930393	-101.015470	380.419181	840.170477	-125.408883	366.351680	834.229615	-235.307600	317.483947	747.140418	-102.013690	313.731161	658.209125	-109.493330	269.602111	584.875583	-112.830316	344.132117	651.580817	-132.604608	240.137594	451.638611	-122.045938	252.003205	475.576602	-201.985947	169.422762	418.972954	-166.088519	464.070767	400.211005	-159.380736	363.191749	375.187529	-94.818590	52.594253	956.430203	-467.209261	127.444331	913.396027	-470.829547	153.686469	935.860400	-455.185982	170.290259	834.125221	-477.031359	249.313832	704.832450	-447.041862	236.086381	697.174133	-337.455494	152.870077	622.184479	-467.319893	111.304837	546.347772	-453.072647	35.117989	500.561807	-450.199621	134.881582	528.044780	-428.733119	-44.528878	406.074907	-438.351415	-16.824206	419.439364	-358.999803	-117.441858	393.165058	-393.908301	144.528070	260.403908	-400.741942	34.855347	278.711129	-463.219642	-264.722442	895.795342	-286.384671	-53.357706	79.236218	-475.063093	-53.299622	79.239547	-77.463125	
